<?xml version="1.0" encoding="UTF-8"?>
<svg width="48" height="48" viewBox="0 0 48 48" fill="none" xmlns="http://www.w3.org/2000/svg">
    <!-- Apple logo - matching the style of android.svg and ios.svg -->
    <!-- Leaf/stem -->
    <path d="M26.6829 7.29219C28.1829 5.44219 29.2329 2.89219 28.9329 0.29219C26.6829 0.39219 23.8829 1.79219 22.3329 3.59219C20.9329 5.19219 19.6829 7.84219 20.0329 10.3422C22.5329 10.5422 25.1329 9.14219 26.6829 7.29219Z" fill="#5E5E5E"/>
    
    <!-- Apple body -->
    <path d="M31.2324 23.7437C31.1809 17.7437 36.1809 15.0937 36.3867 14.9922C33.8867 11.2422 29.9453 10.7922 28.5938 10.7437C25.2438 10.3937 22.0438 12.7437 20.3438 12.7437C18.5938 12.7437 15.9453 10.7922 13.0938 10.8437C9.34376 10.8937 5.84376 12.9922 3.99376 16.2922C0.14376 23.0437 2.99376 32.7437 6.69376 37.9922C8.54376 40.5437 10.6938 43.3937 13.5438 43.2922C16.2938 43.1922 17.3438 41.5437 20.5938 41.5437C23.8438 41.5437 24.7938 43.2922 27.6938 43.2437C30.6938 43.1922 32.5938 40.6437 34.3938 38.0922C36.4938 35.1922 37.3438 32.3437 37.3938 32.1922C37.2938 32.1437 31.2938 29.8437 31.2324 23.7437Z" fill="#5E5E5E"/>
</svg>
